<svg xmlns="http://www.w3.org/2000/svg" xmlns:xlink="http://www.w3.org/1999/xlink" width="14.652" height="25.226" viewBox="0 0 14.652 25.226">
  <defs>
    <clipPath id="clip-path">
      <rect id="Rectangle_1157" data-name="Rectangle 1157" width="14.652" height="25.226" fill="#fd6abc"/>
    </clipPath>
  </defs>
  <g id="Group_2869" data-name="Group 2869" transform="translate(-72 56)">
    <g id="Group_2870" data-name="Group 2870" transform="translate(72 -56)">
      <g id="Group_2869-2" data-name="Group 2869" clip-path="url(#clip-path)">
        <path id="Path_1814" data-name="Path 1814" d="M12.088,25.225H2.556A.367.367,0,0,0,2.48,25.2a2.69,2.69,0,0,1-1.143-.384A2.6,2.6,0,0,1,0,22.49c0-.7,0-1.4,0-2.106Q0,11.6,0,2.809A2.605,2.605,0,0,1,.244,1.6,2.708,2.708,0,0,1,2.764.013C5.8-.012,8.845,0,11.885.006c.091,0,.182.013.272.022a2.761,2.761,0,0,1,2.495,2.756q-.016,9.834-.007,19.668a2.679,2.679,0,0,1-2.027,2.66c-.172.053-.354.077-.531.114M1.113,12.572q0,3.9,0,7.8c0,.38.138.518.52.518H13.04c.334,0,.5-.15.5-.459q0-7.85,0-15.7a.417.417,0,0,0-.459-.457H1.576a.575.575,0,0,0-.148.015c-.219.059-.314.206-.314.479q0,3.9,0,7.809m6.229,9.219a1.254,1.254,0,1,0,1.24,1.3,1.262,1.262,0,0,0-1.24-1.3M7.318,2.113H9.15a.926.926,0,0,0,.15,0,.231.231,0,0,0,.222-.2.215.215,0,0,0-.177-.24.514.514,0,0,0-.147-.02q-1.874,0-3.747,0a.509.509,0,0,0-.147.019.214.214,0,0,0-.177.24.232.232,0,0,0,.221.2.862.862,0,0,0,.15,0H7.318" transform="translate(0 0.001)" fill="#fd6abc"/>
      </g>
    </g>
  </g>
</svg>
